<svg height="1200" node-id="1" sillyvg="true" template-height="1200" template-width="1200" version="1.1" viewBox="0 0 1200 1200" width="1200" xmlns="http://www.w3.org/2000/svg" xmlns:xlink="http://www.w3.org/1999/xlink"><defs node-id="69"></defs><g node-id="71"><path d="M 1.00 1.00 L 1.00 1199.00 L 1199.00 1199.00 L 1199.00 1.00 L 1.00 1.00 M 0.00 0.00 L 1200.00 0.00 L 1200.00 1200.00 L 0.00 1200.00 Z" fill="#8b93a0" fill-rule="nonzero" group-id="1" hidden="true" id="_1" node-id="3" stroke="none" target-height="1200" target-width="1200" target-x="0" target-y="0" visibility="hidden"/></g><g node-id="72"><path d="M 99.14 379.48 L 1104.72 379.48 L 1107.48 379.74 L 1110.01 380.43 L 1112.36 381.55 L 1114.48 383.05 L 1116.28 384.85 L 1117.79 386.98 L 1118.91 389.32 L 1119.60 391.85 L 1119.85 394.62 L 1119.85 1034.73 L 1119.60 1037.49 L 1118.91 1040.02 L 1117.79 1042.37 L 1116.28 1044.49 L 1114.48 1046.29 L 1112.36 1047.80 L 1110.01 1048.92 L 1107.48 1049.61 L 1104.72 1049.86 L 99.14 1049.86 L 96.38 1049.61 L 93.84 1048.92 L 91.50 1047.80 L 89.37 1046.29 L 87.57 1044.49 L 86.07 1042.37 L 84.95 1040.02 L 84.26 1037.49 L 84.00 1034.73 L 84.00 394.62 L 84.26 391.85 L 84.95 389.32 L 86.07 386.98 L 87.57 384.85 L 89.37 383.05 L 91.50 381.55 L 93.84 380.43 L 96.38 379.74 L 99.14 379.48 Z" fill="none" group-id="2" hidden="true" id="line" node-id="4" stroke="#2867ff" stroke-dasharray="5 5" stroke-linecap="butt" stroke-width="1" target-height="670.385" target-width="1035.853" target-x="84.00104" target-y="379.47852" visibility="hidden"/></g><g node-id="73"><g node-id="79"><path d="M 168.34 163.23 L 1033.35 163.23 L 1037.84 163.47 L 1042.13 164.12 L 1046.24 165.17 L 1050.19 166.62 L 1054.00 168.47 L 1057.55 170.62 L 1060.85 173.09 L 1063.93 175.89 L 1066.74 178.97 L 1069.21 182.28 L 1071.36 185.83 L 1073.20 189.64 L 1074.66 193.59 L 1075.71 197.70 L 1076.36 201.99 L 1076.60 206.48 L 1076.60 790.36 L 1076.36 794.85 L 1075.71 799.14 L 1074.66 803.24 L 1073.20 807.19 L 1071.36 811.00 L 1069.21 814.55 L 1066.74 817.86 L 1063.93 820.94 L 1060.85 823.74 L 1057.55 826.22 L 1054.00 828.37 L 1050.19 830.21 L 1046.24 831.67 L 1042.13 832.72 L 1037.84 833.37 L 1033.35 833.61 L 168.34 833.61 L 163.85 833.37 L 159.56 832.72 L 155.46 831.67 L 151.50 830.21 L 147.70 828.37 L 144.15 826.22 L 140.84 823.74 L 137.76 820.94 L 134.96 817.86 L 132.48 814.55 L 130.33 811.00 L 128.49 807.19 L 127.03 803.24 L 125.98 799.14 L 125.33 794.85 L 125.09 790.36 L 125.09 206.48 L 125.33 201.99 L 125.98 197.70 L 127.03 193.59 L 128.49 189.64 L 130.33 185.83 L 132.48 182.28 L 134.96 178.97 L 137.76 175.89 L 140.84 173.09 L 144.15 170.62 L 147.70 168.47 L 151.50 166.62 L 155.46 165.17 L 159.56 164.12 L 163.85 163.47 L 168.34 163.23 Z" fill="#262d38" fill-rule="evenodd" group-id="3,9" id="bg" node-id="6" stroke="#eeeeee" stroke-linecap="butt" stroke-width="1" target-height="670.385" target-width="951.514" target-x="125.08903" target-y="163.22559"/></g><g node-id="80"><path d="M 166.18 163.23 L 1033.35 163.23 L 1037.84 163.47 L 1042.13 164.12 L 1046.24 165.17 L 1050.19 166.62 L 1054.00 168.47 L 1057.55 170.62 L 1060.85 173.09 L 1063.93 175.89 L 1066.74 178.97 L 1069.21 182.28 L 1071.36 185.83 L 1073.20 189.64 L 1074.66 193.59 L 1075.71 197.70 L 1076.36 201.99 L 1076.60 206.48 L 1076.60 248.86 L 122.93 248.86 L 122.93 206.48 L 123.17 201.99 L 123.82 197.70 L 124.87 193.59 L 126.32 189.64 L 128.17 185.83 L 130.32 182.28 L 132.79 178.97 L 135.59 175.89 L 138.68 173.09 L 141.98 170.62 L 145.53 168.47 L 149.34 166.62 L 153.29 165.17 L 157.40 164.12 L 161.69 163.47 L 166.18 163.23 Z" fill="#efefef" fill-rule="evenodd" group-id="3,10" id="bg_title" node-id="7" stroke="none" target-height="85.63699" target-width="953.677" target-x="122.926025" target-y="163.22559"/></g><g node-id="81"><g node-id="114"><path d="M 956.37 195.66 L 958.50 195.86 L 960.45 196.39 L 962.26 197.26 L 963.90 198.42 L 965.29 199.81 L 966.45 201.45 L 967.31 203.26 L 967.85 205.21 L 968.04 207.34 L 967.85 209.47 L 967.31 211.43 L 966.45 213.24 L 965.29 214.87 L 963.90 216.26 L 962.26 217.43 L 960.45 218.29 L 958.50 218.82 L 956.37 219.02 L 954.23 218.82 L 952.28 218.29 L 950.47 217.43 L 948.83 216.26 L 947.44 214.87 L 946.28 213.24 L 945.42 211.43 L 944.89 209.47 L 944.69 207.34 L 944.89 205.21 L 945.42 203.26 L 946.28 201.45 L 947.44 199.81 L 948.83 198.42 L 950.47 197.26 L 952.28 196.39 L 954.23 195.86 L 956.37 195.66 Z M 993.35 195.66 L 995.48 195.86 L 997.43 196.39 L 999.24 197.26 L 1000.88 198.42 L 1002.27 199.81 L 1003.43 201.45 L 1004.29 203.26 L 1004.82 205.21 L 1005.02 207.34 L 1004.82 209.47 L 1004.29 211.43 L 1003.43 213.24 L 1002.27 214.87 L 1000.88 216.26 L 999.24 217.43 L 997.43 218.29 L 995.48 218.82 L 993.35 219.02 L 991.21 218.82 L 989.26 218.29 L 987.45 217.43 L 985.81 216.26 L 984.42 214.87 L 983.26 213.24 L 982.40 211.43 L 981.87 209.47 L 981.67 207.34 L 981.87 205.21 L 982.40 203.26 L 983.26 201.45 L 984.42 199.81 L 985.81 198.42 L 987.45 197.26 L 989.26 196.39 L 991.21 195.86 L 993.35 195.66 Z" fill="#2968ff" fill-opacity="0.3" fill-rule="evenodd" group-id="3,11,44" id="路径_1292" node-id="9" stroke="none" target-height="23.355988" target-width="60.335022" target-x="944.68805" target-y="195.66357"/></g><path d="M 1028.38 195.66 L 1030.51 195.86 L 1032.46 196.39 L 1034.27 197.26 L 1035.91 198.42 L 1037.30 199.81 L 1038.46 201.45 L 1039.33 203.26 L 1039.86 205.21 L 1040.06 207.34 L 1039.86 209.47 L 1039.33 211.43 L 1038.46 213.24 L 1037.30 214.87 L 1035.91 216.26 L 1034.27 217.43 L 1032.46 218.29 L 1030.51 218.82 L 1028.38 219.02 L 1026.25 218.82 L 1024.29 218.29 L 1022.48 217.43 L 1020.85 216.26 L 1019.45 214.87 L 1018.29 213.24 L 1017.43 211.43 L 1016.90 209.47 L 1016.70 207.34 L 1016.90 205.21 L 1017.43 203.26 L 1018.29 201.45 L 1019.45 199.81 L 1020.85 198.42 L 1022.48 197.26 L 1024.29 196.39 L 1026.25 195.86 L 1028.38 195.66 Z" fill="#2968ff" fill-rule="evenodd" group-id="3,11,45" id="路径_1295" node-id="10" stroke="none" target-height="23.355988" target-width="23.356018" target-x="1016.7" target-y="195.66357"/></g></g><g node-id="74"><g node-id="82"><g node-id="116"><path d="M 165.62 704.49 L 170.54 704.13 L 183.95 702.77 L 192.86 701.63 L 203.79 699.99 L 215.25 697.99 L 228.00 695.38 L 240.99 692.28 L 254.54 688.50 L 263.55 685.64 L 272.49 682.45 L 281.35 678.94 L 290.06 675.06 L 298.40 670.84 L 306.38 666.27 L 312.20 662.53 L 317.66 658.59 L 322.78 654.44 L 327.58 650.09 L 337.65 640.58 L 347.06 632.38 L 355.83 625.38 L 362.76 620.38 L 369.41 616.12 L 375.80 612.52 L 381.95 609.56 L 388.41 607.01 L 394.76 605.14 L 401.01 603.89 L 407.20 603.25 L 412.17 603.17 L 417.20 603.51 L 422.31 604.26 L 427.52 605.44 L 432.85 607.08 L 439.17 609.56 L 445.81 612.77 L 452.80 616.78 L 460.17 621.67 L 470.25 628.98 L 479.96 636.20 L 489.61 643.28 L 499.06 649.82 L 505.48 653.91 L 511.91 657.57 L 518.34 660.82 L 524.96 663.63 L 531.72 665.85 L 538.64 667.50 L 543.89 668.30 L 549.32 668.68 L 554.95 668.64 L 560.82 668.16 L 566.52 667.24 L 572.55 665.78 L 578.94 663.75 L 585.72 661.08 L 592.12 658.10 L 598.97 654.40 L 606.32 649.91 L 614.21 644.57 L 621.12 639.93 L 627.60 636.06 L 633.70 632.88 L 639.44 630.35 L 645.52 628.13 L 651.26 626.47 L 656.69 625.31 L 661.85 624.62 L 667.14 624.31 L 672.19 624.38 L 677.03 624.80 L 681.66 625.57 L 687.78 627.09 L 693.59 629.03 L 699.13 631.41 L 704.50 634.15 L 709.63 637.12 L 714.50 640.32 L 721.54 645.41 L 728.03 650.50 L 739.95 660.15 L 745.54 664.31 L 750.51 667.45 L 755.47 670.49 L 760.84 674.16 L 772.19 681.95 L 778.34 685.63 L 784.95 688.91 L 789.54 690.71 L 794.39 692.12 L 799.51 693.13 L 804.71 693.60 L 810.28 693.48 L 816.28 692.71 L 820.64 691.73 L 825.30 690.28 L 830.29 688.30 L 835.64 685.75 L 840.63 682.96 L 845.99 679.51 L 851.78 675.33 L 858.01 670.34 L 863.76 665.28 L 869.95 659.36 L 876.61 652.48 L 883.77 644.57 L 894.49 632.75 L 904.23 622.84 L 913.05 614.64 L 920.09 608.66 L 926.63 603.56 L 932.71 599.26 L 938.37 595.68 L 944.43 592.30 L 950.12 589.56 L 955.45 587.39 L 960.46 585.75 L 965.71 584.42 L 970.72 583.51 L 975.50 582.99 L 980.09 582.84 L 986.26 583.12 L 992.23 583.84 L 998.02 585.01 L 1006.57 587.37 L 1015.00 590.26 L 1031.78 596.63" fill="none" group-id="4,12,46" id="路径_2330" node-id="13" stroke="#2867ff" stroke-linecap="round" stroke-opacity="0.298" stroke-width="4" target-height="121.64288" target-width="866.161" target-x="165.61902" target-y="582.8437"/></g><g node-id="117"><path d="M 177.21 706.34 L 176.89 708.61 L 175.98 710.63 L 174.58 712.34 L 172.75 713.68 L 170.63 714.53 L 168.21 714.84 L 165.80 714.53 L 163.67 713.68 L 161.84 712.34 L 160.44 710.63 L 159.54 708.61 L 159.21 706.34 L 159.54 704.06 L 160.44 702.05 L 161.84 700.33 L 163.67 699.00 L 165.80 698.15 L 168.21 697.84 L 170.63 698.15 L 172.75 699.00 L 174.58 700.33 L 175.98 702.05 L 176.89 704.06 L 177.21 706.34 Z" fill="#2867ff" fill-opacity="0.298" fill-rule="nonzero" group-id="4,12,47" id="椭圆_113" node-id="14" stroke="none" target-height="17" target-width="18" target-x="159.21202" target-y="697.8366"/></g><g node-id="118"><path d="M 168.21 695.34 L 170.44 695.54 L 172.56 696.15 L 174.53 697.14 L 176.29 698.51 L 177.75 700.17 L 178.82 702.07 L 179.48 704.14 L 179.71 706.34 L 179.48 708.53 L 178.82 710.61 L 177.75 712.50 L 176.29 714.16 L 174.53 715.53 L 172.56 716.53 L 170.44 717.14 L 168.21 717.34 L 165.99 717.14 L 163.87 716.53 L 161.90 715.53 L 160.13 714.16 L 158.67 712.50 L 157.60 710.61 L 156.94 708.53 L 156.71 706.34 L 156.94 704.14 L 157.60 702.07 L 158.67 700.17 L 160.13 698.51 L 161.90 697.14 L 163.87 696.15 L 165.99 695.54 L 168.21 695.34 Z M 168.21 712.34 L 169.92 712.16 L 171.39 711.61 L 172.70 710.68 L 173.73 709.45 L 174.40 708.02 L 174.71 706.34 L 174.40 704.65 L 173.73 703.22 L 172.70 702.00 L 171.39 701.06 L 169.92 700.51 L 168.21 700.34 L 166.51 700.51 L 165.03 701.06 L 163.72 702.00 L 162.69 703.22 L 162.02 704.65 L 161.71 706.34 L 162.02 708.02 L 162.69 709.45 L 163.72 710.68 L 165.03 711.61 L 166.51 712.16 L 168.21 712.34 Z" fill="#2867ff" fill-opacity="0" fill-rule="nonzero" group-id="4,12,48" id="椭圆_113_-_轮廓" node-id="15" stroke="none" target-height="22" target-width="23.000793" target-x="156.71162" target-y="695.3366"/></g><g node-id="119"><path d="M 1050.21 604.34 L 1049.90 606.61 L 1049.05 608.63 L 1047.72 610.35 L 1046.00 611.68 L 1043.99 612.53 L 1041.71 612.84 L 1039.43 612.53 L 1037.42 611.68 L 1035.70 610.35 L 1034.37 608.63 L 1033.52 606.61 L 1033.21 604.34 L 1033.52 602.06 L 1034.37 600.05 L 1035.70 598.33 L 1037.42 597.00 L 1039.43 596.14 L 1041.71 595.84 L 1043.99 596.14 L 1046.00 597.00 L 1047.72 598.33 L 1049.05 600.05 L 1049.90 602.06 L 1050.21 604.34 Z" fill="#2867ff" fill-opacity="0.298" fill-rule="nonzero" group-id="4,12,49" id="椭圆_114" node-id="16" stroke="none" target-height="17" target-width="17" target-x="1033.212" target-y="595.8366"/></g><g node-id="120"><path d="M 1041.71 593.34 L 1043.72 593.52 L 1045.56 594.03 L 1047.26 594.84 L 1048.81 595.93 L 1050.12 597.24 L 1051.21 598.78 L 1052.02 600.49 L 1052.53 602.33 L 1052.71 604.34 L 1052.53 606.34 L 1052.02 608.18 L 1051.21 609.89 L 1050.12 611.43 L 1048.81 612.74 L 1047.26 613.83 L 1045.56 614.65 L 1043.72 615.15 L 1041.71 615.34 L 1039.70 615.15 L 1037.86 614.65 L 1036.16 613.83 L 1034.62 612.74 L 1033.31 611.43 L 1032.21 609.89 L 1031.40 608.18 L 1030.90 606.34 L 1030.71 604.34 L 1030.90 602.33 L 1031.40 600.49 L 1032.21 598.78 L 1033.31 597.24 L 1034.62 595.93 L 1036.16 594.84 L 1037.86 594.03 L 1039.70 593.52 L 1041.71 593.34 Z M 1041.71 610.34 L 1043.34 610.11 L 1044.74 609.52 L 1045.95 608.58 L 1046.90 607.36 L 1047.48 605.97 L 1047.71 604.34 L 1047.48 602.71 L 1046.90 601.31 L 1045.95 600.09 L 1044.74 599.15 L 1043.34 598.57 L 1041.71 598.34 L 1040.08 598.57 L 1038.69 599.15 L 1037.47 600.09 L 1036.53 601.31 L 1035.94 602.71 L 1035.71 604.34 L 1035.94 605.96 L 1036.53 607.36 L 1037.47 608.58 L 1038.69 609.52 L 1040.08 610.10 L 1041.71 610.34 Z" fill="#2867ff" fill-opacity="0" fill-rule="nonzero" group-id="4,12,50" id="椭圆_114_-_轮廓" node-id="17" stroke="none" target-height="22" target-width="22" target-x="1030.712" target-y="593.3366"/></g><g node-id="121"><path d="M 821.21 692.84 L 821.03 694.85 L 820.55 696.69 L 819.78 698.39 L 818.73 699.94 L 817.48 701.25 L 816.01 702.33 L 814.38 703.15 L 812.63 703.65 L 810.71 703.84 L 808.80 703.65 L 807.04 703.15 L 805.41 702.33 L 803.94 701.25 L 802.69 699.94 L 801.65 698.39 L 800.87 696.69 L 800.39 694.85 L 800.21 692.84 L 800.39 690.83 L 800.87 688.99 L 801.65 687.28 L 802.69 685.74 L 803.94 684.43 L 805.41 683.34 L 807.04 682.52 L 808.80 682.02 L 810.71 681.84 L 812.63 682.02 L 814.38 682.52 L 816.01 683.34 L 817.48 684.43 L 818.73 685.74 L 819.78 687.28 L 820.55 688.99 L 821.03 690.83 L 821.21 692.84 Z" fill="#ffffff" fill-opacity="0.298" fill-rule="nonzero" group-id="4,12,51" id="椭圆_115" node-id="18" stroke="none" target-height="22" target-width="21" target-x="800.21204" target-y="681.8366"/></g><g node-id="122"><path d="M 810.71 683.84 L 808.38 684.22 L 806.33 685.16 L 804.60 686.58 L 803.29 688.39 L 802.47 690.49 L 802.21 692.84 L 802.47 695.19 L 803.29 697.28 L 804.60 699.09 L 806.33 700.51 L 808.38 701.45 L 810.71 701.84 L 813.04 701.45 L 815.09 700.51 L 816.82 699.09 L 818.14 697.28 L 818.96 695.19 L 819.21 692.84 L 818.96 690.49 L 818.14 688.39 L 816.82 686.58 L 815.09 685.16 L 813.04 684.22 L 810.71 683.84 M 810.71 681.84 L 812.67 682.07 L 814.46 682.60 L 816.10 683.43 L 817.59 684.54 L 818.84 685.84 L 819.87 687.38 L 820.63 689.06 L 821.07 690.87 L 821.21 692.84 L 821.07 694.80 L 820.63 696.61 L 819.87 698.30 L 818.84 699.83 L 817.59 701.14 L 816.10 702.24 L 814.46 703.07 L 812.67 703.61 L 810.71 703.84 L 808.75 703.61 L 806.97 703.07 L 805.32 702.24 L 803.84 701.14 L 802.59 699.83 L 801.56 698.30 L 800.80 696.61 L 800.35 694.80 L 800.21 692.84 L 800.35 690.87 L 800.80 689.06 L 801.56 687.38 L 802.59 685.84 L 803.84 684.54 L 805.32 683.43 L 806.97 682.60 L 808.75 682.07 L 810.71 681.84 Z" fill="#2867ff" fill-opacity="0.298" fill-rule="nonzero" group-id="4,12,52" id="椭圆_115_-_轮廓" node-id="19" stroke="none" target-height="22" target-width="21" target-x="800.21204" target-y="681.8366"/></g><g node-id="123"><g node-id="128"><path d="M 751.21 772.84 L 879.21 772.84 L 880.39 773.08 L 881.33 773.72 L 881.97 774.66 L 882.21 775.84 L 882.21 804.84 L 881.97 806.01 L 881.33 806.96 L 880.39 807.60 L 879.21 807.84 L 751.21 807.84 L 750.04 807.60 L 749.09 806.96 L 748.45 806.01 L 748.21 804.84 L 748.21 775.84 L 748.45 774.66 L 749.09 773.72 L 750.04 773.08 L 751.21 772.84 Z" fill="#2867ff" fill-opacity="0.298" fill-rule="nonzero" group-id="4,12,53,58" id="矩形_1563" node-id="21" stroke="none" target-height="35" target-width="134" target-x="748.213" target-y="772.8366"/></g><g node-id="129"><path d="M 782.25 780.27 L 781.13 781.26 L 779.90 782.09 L 778.61 782.73 L 777.25 783.18 L 777.25 786.20 L 779.50 785.31 L 781.49 783.94 L 781.49 798.84 L 784.53 798.84 L 784.53 780.27 Z M 794.67 779.91 L 793.16 780.05 L 791.77 780.57 L 790.57 781.43 L 789.60 782.61 L 788.57 784.82 L 788.00 787.12 L 787.89 789.55 L 788.00 791.99 L 788.57 794.29 L 789.60 796.50 L 790.57 797.67 L 791.78 798.52 L 793.16 799.05 L 794.67 799.20 L 796.18 799.04 L 797.56 798.52 L 798.77 797.66 L 799.74 796.50 L 800.77 794.29 L 801.34 791.99 L 801.46 789.55 L 801.34 787.12 L 800.77 784.82 L 799.74 782.61 L 798.78 781.44 L 797.57 780.58 L 796.18 780.06 L 794.67 779.91 Z M 794.67 782.48 L 795.97 782.74 L 796.98 783.52 L 797.79 784.95 L 798.30 787.23 L 798.42 789.55 L 798.30 791.88 L 797.79 794.15 L 797.36 795.15 L 796.65 795.92 L 795.74 796.43 L 794.67 796.62 L 793.60 796.44 L 792.68 795.93 L 791.98 795.15 L 791.55 794.15 L 791.05 791.88 L 790.93 789.55 L 791.04 787.23 L 791.55 784.95 L 791.98 783.95 L 792.68 783.17 L 793.60 782.66 L 794.67 782.48 Z M 806.06 794.91 L 805.22 795.04 L 804.50 795.48 L 804.02 796.15 L 803.88 796.96 L 804.01 797.75 L 804.45 798.42 L 805.10 798.87 L 805.88 799.02 L 806.53 798.92 L 806.35 799.90 L 805.85 800.77 L 805.04 801.51 L 804.06 802.01 L 804.06 803.72 L 805.85 802.93 L 807.31 801.62 L 808.21 799.91 L 808.51 798.00 L 808.36 796.83 L 807.84 795.77 L 807.05 795.13 L 806.06 794.91 Z M 817.42 779.91 L 815.91 780.05 L 814.52 780.58 L 813.32 781.44 L 812.35 782.61 L 811.32 784.82 L 810.75 787.12 L 810.64 789.55 L 810.75 791.99 L 811.32 794.29 L 812.35 796.50 L 813.32 797.67 L 814.53 798.52 L 815.91 799.05 L 817.42 799.20 L 818.93 799.04 L 820.31 798.52 L 821.52 797.66 L 822.49 796.50 L 823.52 794.29 L 824.09 791.99 L 824.21 789.55 L 824.10 787.12 L 823.53 784.82 L 822.50 782.61 L 821.53 781.44 L 820.32 780.58 L 818.93 780.06 L 817.42 779.91 Z M 817.42 782.48 L 818.72 782.74 L 819.73 783.52 L 820.54 784.95 L 821.05 787.23 L 821.17 789.55 L 821.05 791.88 L 820.54 794.15 L 820.11 795.15 L 819.40 795.92 L 818.49 796.43 L 817.42 796.62 L 816.35 796.44 L 815.43 795.93 L 814.73 795.16 L 814.30 794.15 L 813.80 791.88 L 813.68 789.55 L 813.79 787.23 L 814.30 784.95 L 814.73 783.95 L 815.43 783.17 L 816.35 782.66 L 817.42 782.48 Z M 833.02 779.91 L 831.51 780.05 L 830.12 780.58 L 828.92 781.44 L 827.95 782.61 L 826.92 784.82 L 826.35 787.12 L 826.24 789.55 L 826.35 791.99 L 826.92 794.29 L 827.95 796.50 L 828.92 797.67 L 830.13 798.52 L 831.51 799.05 L 833.02 799.20 L 834.53 799.04 L 835.91 798.52 L 837.12 797.66 L 838.09 796.50 L 839.12 794.29 L 839.69 791.99 L 839.81 789.55 L 839.70 787.12 L 839.13 784.82 L 838.10 782.61 L 837.13 781.44 L 835.92 780.58 L 834.53 780.06 L 833.02 779.91 Z M 833.02 782.48 L 834.32 782.74 L 835.33 783.52 L 836.14 784.95 L 836.65 787.23 L 836.77 789.55 L 836.65 791.88 L 836.14 794.15 L 835.71 795.15 L 835.00 795.92 L 834.09 796.43 L 833.02 796.62 L 831.95 796.44 L 831.03 795.93 L 830.33 795.16 L 829.90 794.15 L 829.40 791.88 L 829.28 789.55 L 829.39 787.23 L 829.90 784.95 L 830.33 783.95 L 831.03 783.17 L 831.95 782.66 L 833.02 782.48 Z M 848.62 779.91 L 847.11 780.05 L 845.72 780.58 L 844.52 781.44 L 843.55 782.61 L 842.52 784.82 L 841.95 787.12 L 841.84 789.55 L 841.95 791.99 L 842.52 794.29 L 843.55 796.50 L 844.52 797.67 L 845.73 798.52 L 847.11 799.05 L 848.62 799.20 L 850.13 799.04 L 851.51 798.52 L 852.72 797.66 L 853.69 796.50 L 854.73 794.29 L 855.29 791.99 L 855.41 789.55 L 855.30 787.12 L 854.73 784.82 L 853.70 782.61 L 852.73 781.44 L 851.52 780.58 L 850.13 780.06 L 848.62 779.91 Z M 848.62 782.48 L 849.92 782.74 L 850.93 783.52 L 851.74 784.95 L 852.25 787.23 L 852.37 789.55 L 852.25 791.88 L 851.74 794.15 L 851.31 795.15 L 850.60 795.92 L 849.69 796.43 L 848.62 796.62 L 847.55 796.44 L 846.63 795.93 L 845.93 795.16 L 845.50 794.15 L 845.00 791.88 L 844.88 789.55 L 844.99 787.23 L 845.50 784.95 L 845.93 783.95 L 846.63 783.17 L 847.55 782.66 L 848.62 782.48 Z" fill="#ffffff" fill-opacity="0.298" fill-rule="nonzero" group-id="4,12,53,59" id="路径_2566" node-id="22" stroke="none" target-height="23.815979" target-width="78.160034" target-x="777.253" target-y="779.9086"/></g><path d="M 815.79 700.61 L 815.79 774.14" fill="none" group-id="4,12,53,60" id="直线_1" node-id="23" stroke="#2867ff" stroke-dasharray="3 3" stroke-linecap="butt" stroke-opacity="0.298" stroke-width="1" target-height="73.526" target-width="0" target-x="815.794" target-y="700.6136"/></g></g><g node-id="83"><g node-id="124"><path d="M 197.58 600.03 L 203.64 590.35 L 209.89 581.44 L 216.31 573.25 L 222.91 565.74 L 229.69 558.89 L 236.65 552.66 L 243.79 547.03 L 251.14 541.96 L 258.69 537.44 L 266.46 533.46 L 274.46 530.01 L 282.72 527.07 L 291.25 524.65 L 300.08 522.75 L 309.22 521.37 L 318.70 520.53 L 328.55 520.25 L 335.51 520.48 L 342.40 521.07 L 349.22 522.02 L 355.99 523.34 L 364.93 525.54 L 373.78 528.16 L 382.55 531.20 L 395.52 536.28 L 408.26 541.77 L 433.18 552.96 L 445.44 558.17 L 457.32 562.69 L 465.31 565.29 L 473.11 567.35 L 480.74 568.88 L 486.53 569.65 L 492.24 570.00 L 497.89 569.93 L 503.48 569.45 L 508.98 568.51 L 514.48 567.02 L 520.01 564.97 L 525.57 562.32 L 530.77 559.26 L 536.08 555.46 L 541.50 550.88 L 547.06 545.41 L 572.05 518.59 L 583.47 506.68 L 593.86 496.59 L 600.94 490.34 L 607.82 484.97 L 614.51 480.41 L 619.76 477.35 L 625.09 474.78 L 630.50 472.68 L 636.01 471.03 L 641.60 469.88 L 647.50 469.21 L 653.75 469.05 L 660.37 469.43 L 666.78 470.29 L 673.76 471.73 L 681.36 473.81 L 689.62 476.59 L 697.44 479.66 L 706.03 483.45 L 715.45 488.04 L 725.78 493.50 L 748.75 506.00 L 768.83 516.57 L 782.02 523.20 L 794.13 528.92 L 805.23 533.80 L 816.52 538.28 L 827.01 541.86 L 836.77 544.63 L 844.25 546.30 L 851.48 547.48 L 858.48 548.20 L 865.27 548.47 L 872.09 548.27 L 878.90 547.59 L 885.71 546.42 L 892.53 544.75 L 899.16 542.65 L 905.99 540.00 L 913.06 536.76 L 920.37 532.91 L 927.54 529.22 L 934.67 526.20 L 941.78 523.82 L 948.88 522.06 L 956.01 520.89 L 963.19 520.31 L 970.42 520.31 L 977.76 520.92 L 985.20 522.12 L 992.79 523.96 L 1000.54 526.46 L 1008.48 529.65 L 1016.63 533.58 L 1025.00 538.30 L 1033.63 543.86 L 1042.53 550.32" fill="none" group-id="4,13,54" id="路径_2334" node-id="25" stroke="#ffb906" stroke-linecap="round" stroke-opacity="0.298" stroke-width="4" target-height="130.97574" target-width="844.95605" target-x="197.57803" target-y="469.05087"/></g><g node-id="125"><path d="M 200.71 584.34 L 202.91 584.57 L 204.98 585.23 L 206.88 586.30 L 208.54 587.76 L 209.91 589.52 L 210.90 591.49 L 211.51 593.61 L 211.71 595.84 L 211.51 598.06 L 210.90 600.18 L 209.91 602.15 L 208.54 603.92 L 206.88 605.37 L 204.98 606.44 L 202.91 607.11 L 200.71 607.34 L 198.51 607.11 L 196.44 606.44 L 194.55 605.37 L 192.88 603.92 L 191.52 602.15 L 190.52 600.18 L 189.91 598.06 L 189.71 595.84 L 189.91 593.61 L 190.52 591.49 L 191.52 589.52 L 192.88 587.76 L 194.55 586.30 L 196.44 585.23 L 198.51 584.57 L 200.71 584.34 Z M 200.71 602.34 L 202.40 602.03 L 203.83 601.36 L 205.05 600.32 L 205.99 599.02 L 206.54 597.54 L 206.71 595.84 L 206.54 594.13 L 205.99 592.65 L 205.05 591.35 L 203.83 590.32 L 202.40 589.65 L 200.71 589.34 L 199.03 589.65 L 197.60 590.32 L 196.37 591.35 L 195.44 592.65 L 194.89 594.13 L 194.71 595.84 L 194.89 597.54 L 195.44 599.02 L 196.37 600.32 L 197.60 601.36 L 199.03 602.03 L 200.71 602.34 Z" fill="#ffb906" fill-opacity="0" fill-rule="nonzero" group-id="4,13,55" id="椭圆_116_-_轮廓" node-id="26" stroke="none" target-height="23.000366" target-width="22" target-x="189.71204" target-y="584.3366"/></g><g node-id="126"><path d="M 1041.71 535.34 L 1043.72 535.52 L 1045.56 536.03 L 1047.26 536.84 L 1048.81 537.93 L 1050.12 539.24 L 1051.21 540.78 L 1052.02 542.49 L 1052.53 544.33 L 1052.71 546.34 L 1052.53 548.34 L 1052.02 550.18 L 1051.21 551.89 L 1050.12 553.43 L 1048.81 554.74 L 1047.26 555.83 L 1045.56 556.65 L 1043.72 557.15 L 1041.71 557.34 L 1039.71 557.15 L 1037.87 556.65 L 1036.16 555.83 L 1034.62 554.74 L 1033.31 553.43 L 1032.21 551.89 L 1031.40 550.18 L 1030.90 548.34 L 1030.71 546.34 L 1030.90 544.33 L 1031.40 542.49 L 1032.21 540.78 L 1033.31 539.24 L 1034.62 537.93 L 1036.16 536.84 L 1037.87 536.03 L 1039.71 535.52 L 1041.71 535.34 Z M 1041.71 552.34 L 1043.34 552.11 L 1044.74 551.52 L 1045.96 550.58 L 1046.90 549.36 L 1047.48 547.97 L 1047.71 546.34 L 1047.48 544.71 L 1046.90 543.31 L 1045.96 542.09 L 1044.74 541.15 L 1043.34 540.57 L 1041.71 540.34 L 1040.08 540.57 L 1038.69 541.15 L 1037.47 542.09 L 1036.53 543.31 L 1035.94 544.71 L 1035.71 546.34 L 1035.94 547.96 L 1036.53 549.36 L 1037.47 550.58 L 1038.69 551.52 L 1040.08 552.10 L 1041.71 552.34 Z" fill="#ffb906" fill-opacity="0" fill-rule="nonzero" group-id="4,13,56" id="椭圆_117_-_轮廓" node-id="27" stroke="none" target-height="22" target-width="22" target-x="1030.713" target-y="535.3366"/></g><g node-id="127"><g node-id="131"><path d="M 818.21 426.84 L 946.21 426.84 L 947.39 427.08 L 948.33 427.72 L 948.97 428.66 L 949.21 429.84 L 949.21 458.84 L 948.97 460.01 L 948.33 460.96 L 947.39 461.60 L 946.21 461.84 L 818.21 461.84 L 817.04 461.60 L 816.09 460.96 L 815.45 460.01 L 815.21 458.84 L 815.21 429.84 L 815.45 428.66 L 816.09 427.72 L 817.04 427.08 L 818.21 426.84 Z" fill="#ffb906" fill-opacity="0.298" fill-rule="nonzero" group-id="4,13,57,61" id="矩形_1563-2" node-id="29" stroke="none" target-height="35" target-width="134" target-x="815.213" target-y="426.8366"/></g><g node-id="132"><path d="M 849.24 434.27 L 848.13 435.26 L 846.90 436.09 L 845.61 436.73 L 844.25 437.18 L 844.25 440.20 L 846.50 439.31 L 848.49 437.94 L 848.49 452.84 L 851.53 452.84 L 851.53 434.27 Z M 861.67 433.91 L 860.16 434.05 L 858.77 434.57 L 857.57 435.43 L 856.60 436.61 L 855.57 438.82 L 855.00 441.12 L 854.89 443.55 L 855.00 445.99 L 855.57 448.29 L 856.60 450.50 L 857.57 451.67 L 858.78 452.52 L 860.16 453.05 L 861.67 453.20 L 863.18 453.04 L 864.56 452.52 L 865.77 451.66 L 866.74 450.50 L 867.77 448.29 L 868.34 445.99 L 868.46 443.55 L 868.34 441.12 L 867.77 438.82 L 866.74 436.61 L 865.77 435.44 L 864.57 434.58 L 863.18 434.06 L 861.67 433.91 Z M 861.67 436.48 L 862.96 436.74 L 863.98 437.52 L 864.79 438.95 L 865.30 441.23 L 865.42 443.55 L 865.30 445.88 L 864.79 448.15 L 864.36 449.15 L 863.65 449.92 L 862.74 450.43 L 861.67 450.62 L 860.60 450.44 L 859.68 449.93 L 858.98 449.15 L 858.55 448.15 L 858.05 445.88 L 857.93 443.55 L 858.04 441.23 L 858.55 438.95 L 858.97 437.95 L 859.68 437.17 L 860.60 436.66 L 861.67 436.48 Z M 873.06 448.91 L 872.22 449.04 L 871.50 449.48 L 871.02 450.15 L 870.88 450.96 L 871.01 451.75 L 871.45 452.42 L 872.10 452.87 L 872.88 453.02 L 873.53 452.92 L 873.35 453.90 L 872.85 454.77 L 872.04 455.51 L 871.06 456.01 L 871.06 457.72 L 872.85 456.93 L 874.31 455.62 L 875.21 453.91 L 875.51 452.00 L 875.36 450.83 L 874.84 449.77 L 874.05 449.13 L 873.06 448.91 Z M 884.42 433.91 L 882.91 434.05 L 881.52 434.58 L 880.32 435.44 L 879.35 436.61 L 878.32 438.82 L 877.75 441.12 L 877.64 443.55 L 877.75 445.99 L 878.32 448.29 L 879.35 450.50 L 880.32 451.67 L 881.53 452.52 L 882.91 453.05 L 884.42 453.20 L 885.93 453.04 L 887.31 452.52 L 888.52 451.66 L 889.49 450.50 L 890.52 448.29 L 891.09 445.99 L 891.21 443.55 L 891.10 441.12 L 890.53 438.82 L 889.50 436.61 L 888.53 435.44 L 887.32 434.58 L 885.93 434.06 L 884.42 433.91 Z M 884.42 436.48 L 885.71 436.74 L 886.73 437.52 L 887.54 438.95 L 888.05 441.23 L 888.17 443.55 L 888.05 445.88 L 887.54 448.15 L 887.11 449.15 L 886.40 449.92 L 885.49 450.43 L 884.42 450.62 L 883.35 450.44 L 882.43 449.93 L 881.73 449.16 L 881.30 448.15 L 880.80 445.88 L 880.68 443.55 L 880.79 441.23 L 881.30 438.95 L 881.72 437.95 L 882.43 437.17 L 883.35 436.66 L 884.42 436.48 Z M 900.02 433.91 L 898.51 434.05 L 897.12 434.58 L 895.92 435.44 L 894.95 436.61 L 893.92 438.82 L 893.35 441.12 L 893.24 443.55 L 893.35 445.99 L 893.92 448.29 L 894.95 450.50 L 895.92 451.67 L 897.13 452.52 L 898.51 453.05 L 900.02 453.20 L 901.53 453.04 L 902.91 452.52 L 904.12 451.66 L 905.09 450.50 L 906.12 448.29 L 906.69 445.99 L 906.81 443.55 L 906.70 441.12 L 906.13 438.82 L 905.10 436.61 L 904.13 435.44 L 902.92 434.58 L 901.53 434.06 L 900.02 433.91 Z M 900.02 436.48 L 901.31 436.74 L 902.33 437.52 L 903.14 438.95 L 903.65 441.23 L 903.77 443.55 L 903.65 445.88 L 903.14 448.15 L 902.71 449.15 L 902.00 449.92 L 901.09 450.43 L 900.02 450.62 L 898.95 450.44 L 898.03 449.93 L 897.33 449.16 L 896.90 448.15 L 896.40 445.88 L 896.28 443.55 L 896.39 441.23 L 896.90 438.95 L 897.32 437.95 L 898.03 437.17 L 898.95 436.66 L 900.02 436.48 Z M 915.62 433.91 L 914.11 434.05 L 912.72 434.58 L 911.52 435.44 L 910.55 436.61 L 909.52 438.82 L 908.95 441.12 L 908.84 443.55 L 908.95 445.99 L 909.52 448.29 L 910.55 450.50 L 911.52 451.67 L 912.73 452.52 L 914.11 453.05 L 915.62 453.20 L 917.13 453.04 L 918.51 452.52 L 919.72 451.66 L 920.69 450.50 L 921.72 448.29 L 922.29 445.99 L 922.41 443.55 L 922.30 441.12 L 921.73 438.82 L 920.70 436.61 L 919.73 435.44 L 918.52 434.58 L 917.13 434.06 L 915.62 433.91 Z M 915.62 436.48 L 916.91 436.74 L 917.93 437.52 L 918.74 438.95 L 919.25 441.23 L 919.37 443.55 L 919.25 445.88 L 918.74 448.15 L 918.31 449.15 L 917.60 449.92 L 916.69 450.43 L 915.62 450.62 L 914.55 450.44 L 913.63 449.93 L 912.93 449.16 L 912.50 448.15 L 912.00 445.88 L 911.88 443.55 L 911.99 441.23 L 912.50 438.95 L 912.92 437.95 L 913.63 437.17 L 914.55 436.66 L 915.62 436.48 Z" fill="#ffffff" fill-opacity="0.298" fill-rule="nonzero" group-id="4,13,57,62" id="路径_2565" node-id="30" stroke="none" target-height="23.81601" target-width="78.160034" target-x="844.252" target-y="433.9086"/></g><g node-id="133"><path d="M 882.39 461.65 L 882.39 535.18" fill="none" group-id="4,13,57,63" id="直线_1-2" node-id="31" stroke="#ffb906" stroke-dasharray="3 3" stroke-linecap="butt" stroke-opacity="0.298" stroke-width="1" target-height="73.526" target-width="0" target-x="882.39307" target-y="461.6546"/></g><g node-id="134"><path d="M 895.21 545.84 L 895.03 547.84 L 894.52 549.68 L 893.71 551.39 L 892.62 552.93 L 891.31 554.24 L 889.76 555.33 L 888.06 556.15 L 886.22 556.65 L 884.21 556.84 L 882.20 556.65 L 880.36 556.15 L 878.66 555.33 L 877.12 554.24 L 875.81 552.93 L 874.71 551.39 L 873.90 549.68 L 873.40 547.84 L 873.21 545.84 L 873.40 543.83 L 873.90 541.99 L 874.71 540.28 L 875.81 538.74 L 877.12 537.43 L 878.66 536.34 L 880.36 535.53 L 882.20 535.02 L 884.21 534.84 L 886.22 535.02 L 888.06 535.53 L 889.76 536.34 L 891.31 537.43 L 892.62 538.74 L 893.71 540.28 L 894.52 541.99 L 895.03 543.83 L 895.21 545.84 Z" fill="#ffffff" fill-opacity="0.298" fill-rule="nonzero" group-id="4,13,57,64" id="椭圆_118" node-id="32" stroke="none" target-height="22" target-width="22" target-x="873.21204" target-y="534.8366"/></g><path d="M 884.21 536.84 L 881.80 537.16 L 879.67 538.07 L 877.85 539.47 L 876.44 541.29 L 875.54 543.43 L 875.21 545.84 L 875.54 548.25 L 876.44 550.38 L 877.85 552.20 L 879.67 553.61 L 881.80 554.51 L 884.21 554.84 L 886.62 554.51 L 888.75 553.61 L 890.58 552.20 L 891.98 550.38 L 892.89 548.25 L 893.21 545.84 L 892.88 543.43 L 891.98 541.30 L 890.57 539.48 L 888.75 538.07 L 886.62 537.17 L 884.21 536.84 M 884.21 534.84 L 886.22 535.02 L 888.06 535.53 L 889.76 536.34 L 891.31 537.43 L 892.62 538.74 L 893.71 540.28 L 894.52 541.99 L 895.03 543.83 L 895.21 545.84 L 895.03 547.84 L 894.52 549.68 L 893.71 551.39 L 892.62 552.93 L 891.31 554.24 L 889.76 555.33 L 888.06 556.15 L 886.22 556.65 L 884.21 556.84 L 882.20 556.65 L 880.36 556.15 L 878.66 555.33 L 877.12 554.24 L 875.81 552.93 L 874.71 551.39 L 873.90 549.68 L 873.40 547.84 L 873.21 545.84 L 873.40 543.83 L 873.90 541.99 L 874.71 540.28 L 875.81 538.74 L 877.12 537.43 L 878.66 536.34 L 880.36 535.53 L 882.20 535.02 L 884.21 534.84 Z" fill="#ffb906" fill-opacity="0.298" fill-rule="nonzero" group-id="4,13,57,65" id="椭圆_118_-_轮廓" node-id="33" stroke="none" target-height="22" target-width="22" target-x="873.21204" target-y="534.8366"/></g></g></g><g node-id="75"><path d="M 161.85 431.38 L 160.09 431.13 L 158.58 430.50 L 157.27 429.48 L 156.25 428.16 L 155.61 426.65 L 155.36 424.89 L 155.36 284.33 L 155.61 282.57 L 156.24 281.06 L 157.26 279.74 L 158.58 278.72 L 160.09 278.09 L 161.85 277.84 L 423.52 277.84 L 425.22 278.07 L 426.74 278.70 L 428.11 279.74 L 429.15 281.11 L 429.78 282.62 L 430.01 284.33 L 430.01 424.89 L 429.78 426.60 L 429.15 428.11 L 428.11 429.48 L 426.74 430.52 L 425.22 431.15 L 423.52 431.38 Z M 497.04 403.27 L 494.73 402.95 L 492.68 402.09 L 490.93 400.73 L 489.58 398.98 L 488.71 396.94 L 488.40 394.62 L 488.40 388.13 L 488.71 385.81 L 489.58 383.77 L 490.93 382.01 L 492.68 380.66 L 494.73 379.79 L 497.04 379.48 L 1039.84 379.48 L 1042.16 379.80 L 1044.21 380.66 L 1045.96 382.02 L 1047.31 383.77 L 1048.18 385.81 L 1048.49 388.13 L 1048.49 394.62 L 1048.18 396.94 L 1047.31 398.98 L 1045.96 400.73 L 1044.21 402.09 L 1042.16 402.95 L 1039.84 403.27 Z M 497.04 351.37 L 495.34 351.20 L 493.73 350.71 L 492.25 349.92 L 490.93 348.83 L 489.85 347.51 L 489.05 346.03 L 488.56 344.42 L 488.40 342.72 L 488.40 336.23 L 488.71 333.91 L 489.58 331.87 L 490.93 330.12 L 492.68 328.76 L 494.73 327.90 L 497.04 327.58 L 1039.84 327.58 L 1042.16 327.90 L 1044.21 328.76 L 1045.96 330.12 L 1047.31 331.87 L 1048.18 333.91 L 1048.49 336.23 L 1048.49 342.72 L 1048.18 345.04 L 1047.31 347.08 L 1045.96 348.83 L 1044.21 350.19 L 1042.16 351.05 L 1039.84 351.37 Z M 497.04 301.63 L 494.73 301.32 L 492.68 300.45 L 490.93 299.10 L 489.58 297.35 L 488.71 295.30 L 488.40 292.98 L 488.40 286.49 L 488.71 284.18 L 489.58 282.13 L 490.93 280.38 L 492.68 279.03 L 494.73 278.16 L 497.04 277.84 L 1039.84 277.84 L 1042.16 278.16 L 1044.21 279.03 L 1045.96 280.38 L 1047.31 282.13 L 1048.18 284.18 L 1048.49 286.49 L 1048.49 292.98 L 1048.18 295.30 L 1047.31 297.35 L 1045.96 299.10 L 1044.21 300.45 L 1042.16 301.32 L 1039.84 301.63 Z" fill="#efefef" fill-opacity="0.1" fill-rule="nonzero" group-id="5" id="block-2" node-id="34" stroke="none" target-height="153.53809" target-width="893.13" target-x="155.36401" target-y="277.84082"/></g><g node-id="76"><g node-id="84"><path d="M 789.73 309.71 L 785.04 309.71 L 785.04 181.31 L 784.88 176.44 L 784.41 171.61 L 783.62 166.81 L 782.51 162.08 L 781.11 157.44 L 779.39 152.87 L 777.37 148.43 L 775.08 144.15 L 772.52 140.03 L 769.69 136.08 L 766.61 132.33 L 763.28 128.76 L 759.72 125.43 L 755.96 122.35 L 752.02 119.52 L 747.89 116.96 L 743.61 114.67 L 739.17 112.66 L 734.60 110.94 L 729.96 109.53 L 725.23 108.43 L 720.44 107.64 L 715.61 107.16 L 710.73 107.00 L 438.70 107.00 L 432.14 107.29 L 425.72 108.14 L 419.41 109.55 L 413.25 111.49 L 407.32 113.95 L 401.59 116.93 L 396.14 120.39 L 391.00 124.33 L 386.15 128.77 L 381.72 133.61 L 377.78 138.75 L 374.32 144.20 L 371.34 149.94 L 368.88 155.87 L 366.93 162.03 L 365.53 168.33 L 364.68 174.75 L 364.39 181.31 L 364.39 885.71 L 364.68 892.28 L 365.53 898.70 L 366.93 905.00 L 368.88 911.16 L 371.34 917.09 L 374.31 922.82 L 377.78 928.28 L 381.72 933.42 L 386.15 938.26 L 391.00 942.70 L 396.14 946.64 L 401.59 950.10 L 407.32 953.08 L 413.25 955.54 L 419.41 957.48 L 425.72 958.89 L 432.14 959.74 L 438.70 960.03 L 710.73 960.03 L 716.90 959.77 L 722.86 959.04 L 728.62 957.87 L 734.22 956.24 L 739.69 954.17 L 744.91 951.72 L 749.88 948.90 L 754.62 945.69 L 759.11 942.13 L 763.28 938.26 L 767.14 934.09 L 770.71 929.60 L 773.91 924.86 L 776.74 919.89 L 779.18 914.68 L 781.26 909.20 L 782.88 903.61 L 784.06 897.84 L 784.78 891.89 L 785.04 885.72 L 785.04 401.11 L 789.73 401.11 Z" fill="#e6e6e6" fill-rule="nonzero" group-id="6,14" id="mobel-2" node-id="36" stroke="none" target-height="853.029" target-width="425.344" target-x="364.386" target-y="107"/></g><g node-id="85"><path d="M 769.23 181.83 L 769.23 885.20 L 768.89 891.31 L 767.94 897.14 L 766.40 902.74 L 764.27 908.15 L 761.65 913.22 L 758.52 917.98 L 754.92 922.39 L 750.92 926.39 L 746.50 929.99 L 741.74 933.12 L 736.67 935.74 L 731.27 937.87 L 725.67 939.42 L 719.83 940.36 L 713.73 940.70 L 440.39 940.70 L 434.28 940.36 L 428.45 939.42 L 422.85 937.87 L 417.44 935.74 L 412.37 933.12 L 407.61 929.99 L 403.20 926.39 L 399.20 922.39 L 395.60 917.98 L 392.47 913.22 L 389.85 908.15 L 387.72 902.74 L 386.18 897.14 L 385.23 891.31 L 384.89 885.20 L 384.89 181.83 L 385.11 176.93 L 385.75 172.14 L 386.79 167.43 L 388.25 162.83 L 390.08 158.40 L 392.31 154.12 L 394.90 150.05 L 397.84 146.21 L 401.15 142.59 L 404.77 139.28 L 408.61 136.34 L 412.68 133.75 L 416.96 131.53 L 421.39 129.69 L 425.99 128.24 L 430.70 127.19 L 435.49 126.56 L 440.39 126.34 L 473.55 126.34 L 472.52 129.43 L 471.87 132.55 L 471.62 135.73 L 471.75 138.98 L 472.28 142.20 L 473.18 145.26 L 474.45 148.18 L 476.09 151.00 L 478.08 153.58 L 480.31 155.86 L 482.80 157.85 L 485.58 159.56 L 488.54 160.91 L 491.58 161.87 L 494.72 162.45 L 497.97 162.66 L 653.81 162.66 L 657.06 162.45 L 660.19 161.87 L 663.23 160.91 L 666.20 159.56 L 668.98 157.85 L 671.47 155.86 L 673.70 153.58 L 675.68 151.00 L 677.33 148.18 L 678.59 145.26 L 679.49 142.20 L 680.03 138.98 L 680.16 135.73 L 679.90 132.55 L 679.26 129.43 L 678.22 126.34 L 713.72 126.34 L 718.62 126.55 L 723.42 127.19 L 728.13 128.24 L 732.73 129.69 L 737.16 131.53 L 741.44 133.75 L 745.51 136.34 L 749.35 139.28 L 752.97 142.59 L 756.28 146.21 L 759.22 150.05 L 761.81 154.12 L 764.03 158.40 L 765.87 162.83 L 767.32 167.43 L 768.37 172.14 L 769.01 176.93 L 769.23 181.83 Z" fill="#ffffff" fill-rule="nonzero" group-id="6,15" id="mobel2" node-id="37" stroke="none" target-height="814.36304" target-width="384.333" target-x="384.89197" target-y="126.337006"/></g><g node-id="86"><path d="M 501.58 319.20 L 459.60 319.20 L 457.04 318.94 L 454.61 318.20 L 452.38 317.00 L 450.38 315.37 L 448.75 313.38 L 447.56 311.14 L 446.82 308.71 L 446.56 306.15 L 446.56 264.18 L 446.82 261.62 L 447.56 259.19 L 448.75 256.95 L 450.38 254.96 L 452.38 253.33 L 454.61 252.13 L 457.04 251.39 L 459.60 251.13 L 501.58 251.13 L 504.14 251.39 L 506.57 252.13 L 508.81 253.33 L 510.80 254.96 L 512.43 256.95 L 513.63 259.19 L 514.37 261.62 L 514.63 264.18 L 514.63 306.15 L 514.37 308.71 L 513.63 311.14 L 512.43 313.38 L 510.80 315.37 L 508.81 317.01 L 506.57 318.20 L 504.14 318.94 L 501.58 319.20 Z" fill="#2968ff" fill-rule="nonzero" group-id="6,16" id="l" node-id="38" stroke="none" target-height="68.065" target-width="68.066986" target-x="446.559" target-y="251.13297"/></g><g node-id="87"><path d="M 598.05 319.20 L 556.07 319.20 L 553.51 318.94 L 551.08 318.20 L 548.84 317.00 L 546.85 315.37 L 545.22 313.38 L 544.02 311.14 L 543.28 308.71 L 543.02 306.15 L 543.02 264.18 L 543.28 261.62 L 544.02 259.19 L 545.22 256.95 L 546.85 254.96 L 548.84 253.33 L 551.08 252.13 L 553.51 251.39 L 556.07 251.13 L 598.05 251.13 L 600.61 251.39 L 603.04 252.13 L 605.28 253.33 L 607.27 254.96 L 608.90 256.95 L 610.09 259.19 L 610.84 261.62 L 611.09 264.18 L 611.09 306.15 L 610.84 308.71 L 610.09 311.14 L 608.90 313.38 L 607.27 315.37 L 605.28 317.00 L 603.04 318.20 L 600.61 318.94 L 598.05 319.20 Z" fill="#2968ff" fill-rule="nonzero" group-id="6,17" id="l-2" node-id="39" stroke="none" target-height="68.065" target-width="68.06702" target-x="543.025" target-y="251.13297"/></g><g node-id="88"><path d="M 652.54 640.95 L 649.98 640.70 L 647.55 639.96 L 645.31 638.76 L 643.32 637.13 L 641.69 635.14 L 640.49 632.90 L 639.75 630.47 L 639.49 627.91 L 639.49 585.93 L 639.75 583.37 L 640.49 580.94 L 641.69 578.71 L 643.32 576.71 L 645.31 575.08 L 647.55 573.89 L 649.98 573.15 L 652.54 572.89 L 694.52 572.89 L 697.08 573.15 L 699.51 573.89 L 701.75 575.08 L 703.74 576.71 L 705.37 578.71 L 706.56 580.94 L 707.30 583.37 L 707.56 585.93 L 707.56 627.91 L 707.30 630.47 L 706.56 632.90 L 705.37 635.14 L 703.74 637.13 L 701.75 638.76 L 699.51 639.96 L 697.08 640.70 L 694.52 640.96 Z M 556.07 640.95 L 553.51 640.70 L 551.08 639.95 L 548.84 638.76 L 546.85 637.13 L 545.22 635.14 L 544.02 632.90 L 543.28 630.47 L 543.03 627.91 L 543.03 585.93 L 543.28 583.37 L 544.02 580.94 L 545.22 578.71 L 546.85 576.71 L 548.84 575.08 L 551.08 573.89 L 553.51 573.15 L 556.07 572.89 L 598.05 572.89 L 600.61 573.15 L 603.04 573.89 L 605.28 575.08 L 607.27 576.71 L 608.90 578.71 L 610.09 580.94 L 610.84 583.37 L 611.09 585.93 L 611.09 627.91 L 610.84 630.47 L 610.10 632.90 L 608.90 635.14 L 607.27 637.13 L 605.28 638.76 L 603.04 639.96 L 600.61 640.70 L 598.05 640.96 Z M 459.60 640.95 L 457.04 640.70 L 454.61 639.96 L 452.37 638.76 L 450.38 637.13 L 448.75 635.14 L 447.56 632.90 L 446.81 630.47 L 446.56 627.91 L 446.56 585.93 L 446.81 583.37 L 447.56 580.94 L 448.75 578.71 L 450.38 576.71 L 452.37 575.08 L 454.61 573.89 L 457.04 573.15 L 459.60 572.89 L 501.58 572.89 L 504.14 573.15 L 506.57 573.89 L 508.81 575.08 L 510.80 576.71 L 512.43 578.71 L 513.63 580.94 L 514.37 583.37 L 514.62 585.93 L 514.62 627.91 L 514.37 630.47 L 513.63 632.90 L 512.43 635.14 L 510.80 637.13 L 508.81 638.76 L 506.57 639.96 L 504.14 640.70 L 501.58 640.96 Z M 652.54 533.69 L 649.98 533.44 L 647.55 532.70 L 645.31 531.50 L 643.32 529.87 L 641.69 527.88 L 640.49 525.64 L 639.75 523.21 L 639.49 520.65 L 639.49 478.67 L 639.75 476.11 L 640.49 473.68 L 641.69 471.44 L 643.32 469.45 L 645.31 467.82 L 647.55 466.62 L 649.98 465.88 L 652.54 465.63 L 694.52 465.63 L 697.08 465.88 L 699.51 466.62 L 701.75 467.82 L 703.74 469.45 L 705.37 471.44 L 706.56 473.68 L 707.30 476.11 L 707.56 478.67 L 707.56 520.65 L 707.31 523.21 L 706.56 525.64 L 705.37 527.88 L 703.74 529.87 L 701.75 531.50 L 699.51 532.70 L 697.08 533.44 L 694.52 533.69 Z M 556.07 533.69 L 553.51 533.44 L 551.08 532.70 L 548.84 531.50 L 546.85 529.87 L 545.22 527.88 L 544.02 525.64 L 543.28 523.21 L 543.03 520.65 L 543.03 478.67 L 543.28 476.11 L 544.02 473.68 L 545.22 471.44 L 546.85 469.45 L 548.84 467.82 L 551.08 466.63 L 553.51 465.88 L 556.07 465.63 L 598.05 465.63 L 600.61 465.88 L 603.04 466.63 L 605.28 467.82 L 607.27 469.45 L 608.90 471.44 L 610.10 473.68 L 610.84 476.11 L 611.09 478.67 L 611.09 520.65 L 610.84 523.21 L 610.10 525.64 L 608.90 527.88 L 607.27 529.87 L 605.28 531.50 L 603.04 532.70 L 600.61 533.44 L 598.05 533.69 Z M 459.60 533.69 L 457.04 533.44 L 454.61 532.70 L 452.37 531.50 L 450.38 529.87 L 448.75 527.88 L 447.55 525.64 L 446.81 523.21 L 446.56 520.65 L 446.56 478.67 L 446.81 476.11 L 447.56 473.68 L 448.75 471.44 L 450.38 469.45 L 452.37 467.82 L 454.61 466.62 L 457.04 465.88 L 459.60 465.63 L 501.58 465.63 L 504.14 465.88 L 506.57 466.63 L 508.81 467.82 L 510.80 469.45 L 512.43 471.44 L 513.63 473.68 L 514.37 476.11 L 514.62 478.67 L 514.62 520.65 L 514.37 523.21 L 513.63 525.64 L 512.43 527.88 L 510.80 529.87 L 508.81 531.50 L 506.57 532.70 L 504.14 533.44 L 501.58 533.69 Z M 652.54 426.46 L 649.98 426.20 L 647.55 425.46 L 645.31 424.26 L 643.32 422.63 L 641.69 420.64 L 640.49 418.40 L 639.75 415.97 L 639.49 413.41 L 639.49 371.43 L 639.75 368.87 L 640.49 366.45 L 641.69 364.21 L 643.32 362.22 L 645.31 360.58 L 647.55 359.39 L 649.98 358.65 L 652.54 358.39 L 694.52 358.39 L 697.08 358.65 L 699.51 359.39 L 701.75 360.58 L 703.74 362.22 L 705.37 364.21 L 706.56 366.45 L 707.30 368.87 L 707.56 371.43 L 707.56 413.41 L 707.30 415.97 L 706.56 418.40 L 705.36 420.64 L 703.73 422.63 L 701.74 424.26 L 699.50 425.46 L 697.07 426.20 L 694.51 426.46 Z M 556.07 426.46 L 553.51 426.20 L 551.08 425.46 L 548.84 424.26 L 546.85 422.63 L 545.22 420.64 L 544.02 418.40 L 543.28 415.97 L 543.03 413.41 L 543.03 371.43 L 543.28 368.87 L 544.02 366.45 L 545.22 364.21 L 546.85 362.22 L 548.84 360.58 L 551.08 359.39 L 553.51 358.65 L 556.07 358.39 L 598.05 358.39 L 600.61 358.65 L 603.04 359.39 L 605.28 360.58 L 607.27 362.22 L 608.90 364.21 L 610.10 366.45 L 610.84 368.87 L 611.09 371.43 L 611.09 413.41 L 610.84 415.97 L 610.10 418.40 L 608.90 420.64 L 607.27 422.63 L 605.28 424.26 L 603.04 425.46 L 600.61 426.20 L 598.05 426.46 Z M 459.60 426.46 L 457.04 426.20 L 454.61 425.46 L 452.37 424.26 L 450.38 422.63 L 448.75 420.64 L 447.56 418.40 L 446.81 415.97 L 446.56 413.41 L 446.56 371.43 L 446.81 368.87 L 447.56 366.45 L 448.75 364.21 L 450.38 362.22 L 452.37 360.58 L 454.61 359.39 L 457.04 358.65 L 459.60 358.39 L 501.58 358.39 L 504.14 358.65 L 506.57 359.39 L 508.81 360.58 L 510.80 362.22 L 512.43 364.21 L 513.63 366.45 L 514.37 368.87 L 514.62 371.43 L 514.62 413.41 L 514.37 415.97 L 513.63 418.40 L 512.43 420.64 L 510.80 422.63 L 508.81 424.26 L 506.57 425.46 L 504.14 426.20 L 501.58 426.46 Z M 652.54 319.20 L 649.98 318.94 L 647.55 318.20 L 645.31 317.00 L 643.32 315.37 L 641.69 313.38 L 640.49 311.14 L 639.75 308.71 L 639.49 306.15 L 639.49 264.18 L 639.75 261.62 L 640.49 259.19 L 641.69 256.95 L 643.32 254.96 L 645.31 253.33 L 647.55 252.13 L 649.98 251.39 L 652.54 251.13 L 694.52 251.13 L 697.08 251.39 L 699.51 252.13 L 701.75 253.33 L 703.74 254.96 L 705.37 256.95 L 706.56 259.19 L 707.31 261.62 L 707.56 264.18 L 707.56 306.15 L 707.31 308.71 L 706.56 311.14 L 705.37 313.38 L 703.74 315.37 L 701.75 317.00 L 699.51 318.20 L 697.08 318.94 L 694.52 319.20 Z" fill="#e6e6e6" fill-rule="nonzero" group-id="6,18" id="l-3" node-id="40" stroke="none" target-height="389.82422" target-width="261.00488" target-x="446.55713" target-y="251.13281"/></g><path d="M 625.05 684.74 L 583.07 684.74 L 580.39 684.47 L 577.86 683.69 L 575.52 682.44 L 573.43 680.74 L 571.73 678.66 L 570.48 676.32 L 569.70 673.78 L 569.43 671.10 L 569.43 629.13 L 569.70 626.45 L 570.48 623.91 L 571.73 621.57 L 573.43 619.49 L 575.52 617.79 L 577.86 616.54 L 580.39 615.76 L 583.07 615.49 L 625.05 615.49 L 627.72 615.76 L 630.26 616.54 L 632.60 617.79 L 634.68 619.49 L 636.38 621.57 L 637.63 623.91 L 638.41 626.45 L 638.68 629.12 L 638.68 671.10 L 638.41 673.78 L 637.63 676.32 L 636.38 678.66 L 634.68 680.74 L 632.60 682.44 L 630.26 683.69 L 627.72 684.47 L 625.05 684.74 Z" fill="#2968ff" fill-rule="nonzero" group-id="6,19" id="lj" node-id="41" stroke="none" target-height="69.244995" target-width="69.24298" target-x="569.435" target-y="615.49304"/></g><g node-id="77"><g node-id="90"><path d="M 441.08 708.35 L 415.85 703.79 L 414.81 703.48 L 413.85 702.96 L 413.03 702.24 L 412.38 701.37 L 411.93 700.38 L 411.70 699.32 L 411.70 698.23 L 411.94 697.17 L 420.12 672.94 L 420.90 670.27 L 422.16 667.84 L 423.87 665.70 L 425.99 663.91 L 428.43 662.57 L 431.04 661.74 L 433.76 661.43 L 436.53 661.65 L 439.20 662.42 L 441.64 663.68 L 443.78 665.39 L 445.58 667.50 L 446.93 669.93 L 447.77 672.54 L 448.08 675.27 L 447.86 678.04 L 447.06 703.51 L 446.91 704.59 L 446.53 705.61 L 445.95 706.52 L 445.18 707.29 L 444.26 707.88 L 443.25 708.27 L 442.17 708.42 L 441.08 708.35 Z" fill="none" group-id="7,20" id="路径_1439" node-id="43" stroke="none" target-height="46.996887" target-width="36.38394" target-x="411.69995" target-y="661.4255"/></g><g node-id="91"><path d="M 426.44 793.06 L 428.66 791.63 L 430.52 789.76 L 431.93 787.52 L 432.82 785.04 L 433.16 782.41 L 432.91 779.78 L 432.10 777.26 L 430.77 774.98 L 439.83 686.36 L 420.25 686.36 L 413.05 772.89 L 411.49 774.48 L 410.26 776.30 L 409.38 778.32 L 408.87 780.48 L 408.77 782.70 L 409.06 784.88 L 409.73 786.97 L 410.79 788.93 L 412.18 790.66 L 413.85 792.09 L 415.74 793.20 L 417.83 793.97 L 420.02 794.33 L 422.22 794.30 L 424.37 793.88 L 426.44 793.06 Z" fill="#f3dadd" fill-rule="nonzero" group-id="7,21" id="路径_1409" node-id="44" stroke="none" target-height="107.974976" target-width="31.068756" target-x="408.7652" target-y="686.3591"/></g><g node-id="92"><path d="M 444.42 637.45 L 448.23 637.19 L 451.81 636.46 L 455.21 635.27 L 458.43 633.65 L 461.36 631.68 L 464.02 629.33 L 466.37 626.67 L 468.34 623.74 L 469.96 620.52 L 471.15 617.12 L 471.87 613.54 L 472.14 609.73 L 471.87 605.93 L 471.15 602.34 L 469.96 598.95 L 468.34 595.73 L 466.37 592.80 L 464.02 590.14 L 461.36 587.79 L 458.43 585.81 L 455.21 584.20 L 451.81 583.01 L 448.23 582.28 L 444.42 582.02 L 440.76 582.26 L 437.23 582.97 L 433.82 584.13 L 430.58 585.72 L 427.59 587.72 L 424.83 590.14 L 422.41 592.90 L 420.41 595.89 L 418.82 599.13 L 417.66 602.54 L 416.96 606.07 L 416.71 609.73 L 416.96 613.40 L 417.66 616.93 L 418.82 620.34 L 420.41 623.58 L 422.41 626.57 L 424.83 629.33 L 427.59 631.75 L 430.58 633.75 L 433.82 635.34 L 437.23 636.50 L 440.76 637.20 L 444.42 637.45 Z" fill="#f3dadd" fill-rule="nonzero" group-id="7,22" id="路径_1412" node-id="45" stroke="none" target-height="55.429993" target-width="55.42801" target-x="416.71094" target-y="582.01904"/></g><g node-id="93"><path d="M 449.64 737.97 L 448.02 737.70 L 446.57 736.93 L 445.44 735.74 L 444.76 734.25 L 442.90 728.46 L 439.70 720.22 L 434.75 708.87 L 427.59 693.71 L 426.20 690.42 L 425.18 687.06 L 424.52 683.62 L 424.22 680.07 L 424.30 676.50 L 424.75 673.02 L 425.55 669.61 L 426.73 666.25 L 428.26 663.03 L 430.09 660.04 L 432.22 657.25 L 434.67 654.66 L 437.39 652.35 L 440.28 650.37 L 443.36 648.70 L 446.66 647.34 L 450.98 646.13 L 455.37 645.51 L 459.86 645.48 L 464.31 646.05 L 468.59 647.20 L 472.74 648.92 L 476.62 651.18 L 480.12 653.89 L 483.27 657.09 L 485.97 660.68 L 488.13 664.55 L 489.79 668.72 L 492.13 677.17 L 493.84 685.48 L 495.04 693.74 L 495.78 701.32 L 496.18 708.62 L 496.30 714.71 L 496.08 724.12 L 495.73 725.73 L 494.88 727.15 L 493.62 728.21 L 492.09 728.82 L 450.73 737.86 L 449.64 737.97 Z" fill="#cccccc" fill-rule="nonzero" group-id="7,23" id="路径_1415" node-id="46" stroke="none" target-height="92.48602" target-width="72.07468" target-x="424.22296" target-y="645.4841"/></g><g node-id="94"><path d="M 489.69 1001.14 L 503.53 1001.14 L 510.11 947.79 L 489.69 947.79 Z" fill="#f3dadd" fill-rule="nonzero" group-id="7,24" id="路径_1418" node-id="47" stroke="none" target-height="53.356018" target-width="20.420013" target-x="489.69296" target-y="947.78705"/></g><g node-id="95"><path d="M 530.21 1013.99 L 486.73 1013.99 L 486.73 997.19 L 513.41 997.19 L 515.61 997.33 L 517.75 997.76 L 519.84 998.47 L 521.82 999.44 L 523.63 1000.65 L 525.29 1002.11 L 526.75 1003.77 L 527.96 1005.58 L 528.93 1007.56 L 529.64 1009.65 L 530.07 1011.78 L 530.21 1013.99 Z" fill="#2e2e41" fill-rule="nonzero" group-id="7,25" id="路径_1421" node-id="48" stroke="none" target-height="16.800049" target-width="43.477966" target-x="486.73395" target-y="997.1871"/></g><g node-id="96"><path d="M 351.37 983.21 L 363.49 989.88 L 394.96 946.30 L 377.07 936.46 Z" fill="#f3dadd" fill-rule="nonzero" group-id="7,26" id="路径_1424" node-id="49" stroke="none" target-height="53.41803" target-width="43.597992" target-x="351.36597" target-y="936.46106"/></g><g node-id="97"><path d="M 380.68 1013.99 L 342.58 993.04 L 350.67 978.32 L 374.05 991.18 L 375.93 992.38 L 377.59 993.78 L 379.07 995.40 L 380.32 997.19 L 381.33 999.12 L 382.09 1001.21 L 382.57 1003.39 L 382.75 1005.56 L 382.66 1007.74 L 382.27 1009.89 L 381.62 1011.97 L 380.68 1013.99 Z" fill="#2e2e41" fill-rule="nonzero" group-id="7,27" id="路径_1427" node-id="50" stroke="none" target-height="35.666016" target-width="40.174805" target-x="342.57898" target-y="978.32404"/></g><g node-id="98"><path d="M 489.05 971.53 L 487.79 971.36 L 486.69 970.94 L 485.70 970.26 L 484.90 969.37 L 484.34 968.33 L 484.02 967.10 L 466.72 833.78 L 466.47 832.94 L 465.97 832.21 L 465.28 831.67 L 464.45 831.38 L 463.57 831.35 L 462.72 831.59 L 461.99 832.09 L 461.45 832.78 L 389.35 963.60 L 388.18 965.02 L 386.65 965.91 L 384.91 966.22 L 383.10 965.89 L 367.38 959.91 L 366.18 959.25 L 365.24 958.35 L 364.53 957.19 L 364.16 955.87 L 364.15 954.57 L 364.49 953.25 L 414.43 830.55 L 414.68 829.58 L 416.68 816.51 L 418.92 805.04 L 421.37 795.04 L 424.26 785.11 L 427.09 776.68 L 429.85 769.59 L 434.33 759.64 L 438.02 752.66 L 441.62 746.77 L 443.78 743.68 L 444.24 742.86 L 444.49 741.96 L 444.53 741.02 L 444.34 740.10 L 443.64 737.99 L 443.38 736.70 L 443.47 735.39 L 443.89 734.15 L 444.61 733.05 L 447.88 729.79 L 451.26 727.14 L 454.76 725.06 L 458.48 723.37 L 462.19 722.11 L 465.92 721.25 L 471.55 720.54 L 476.84 720.43 L 481.94 720.76 L 486.25 721.36 L 490.19 722.15 L 492.88 722.83 L 495.48 723.63 L 495.64 723.69 L 495.74 723.83 L 498.52 728.03 L 501.16 732.77 L 503.66 738.10 L 506.00 744.08 L 508.62 752.09 L 511.00 760.90 L 513.10 770.57 L 514.82 780.30 L 516.30 790.55 L 517.52 801.35 L 518.88 817.65 L 519.76 834.43 L 520.22 851.26 L 520.31 867.84 L 520.10 884.22 L 519.66 899.61 L 519.03 914.53 L 518.30 927.75 L 516.72 950.31 L 515.41 965.30 L 514.92 967.04 L 513.91 968.44 L 512.49 969.42 L 510.74 969.87 L 489.44 971.51 L 489.05 971.53 Z" fill="#2e2e41" fill-rule="nonzero" group-id="7,28" id="路径_1430" node-id="51" stroke="none" target-height="251.09985" target-width="156.16388" target-x="364.14917" target-y="720.42615"/></g><g node-id="99"><path d="M 552.17 641.93 L 551.90 643.78 L 503.42 671.74 L 491.64 664.96 L 479.08 681.40 L 498.77 695.44 L 500.48 696.39 L 502.29 696.95 L 504.23 697.11 L 506.17 696.85 L 507.95 696.21 L 509.60 695.17 L 559.59 655.74 L 561.92 656.34 L 564.25 656.46 L 566.63 656.11 L 568.89 655.28 L 570.88 654.05 L 572.63 652.41 L 574.02 650.44 L 574.96 648.30 L 575.47 645.95 L 575.49 643.55 L 575.05 641.25 L 574.13 639.03 L 572.78 637.04 L 571.12 635.40 L 569.10 634.09 L 566.85 633.22 L 564.55 632.82 L 562.15 632.89 L 559.81 633.45 L 557.69 634.43 L 555.75 635.86 L 554.14 637.64 L 552.95 639.65 L 552.17 641.93 Z" fill="#f3dadd" fill-rule="nonzero" group-id="7,29" id="路径_1433" node-id="52" stroke="none" target-height="64.29004" target-width="96.40839" target-x="479.08295" target-y="632.822"/></g><g node-id="100"><path d="M 501.81 673.07 L 486.14 693.37 L 485.39 694.15 L 484.49 694.76 L 483.47 695.16 L 482.40 695.34 L 481.31 695.28 L 480.26 694.99 L 479.30 694.49 L 478.46 693.79 L 460.73 675.37 L 458.72 673.46 L 457.14 671.22 L 456.03 668.71 L 455.42 666.00 L 455.35 663.22 L 455.81 660.52 L 456.79 657.96 L 458.27 655.61 L 460.18 653.60 L 462.42 652.01 L 464.92 650.89 L 467.63 650.27 L 470.40 650.19 L 473.11 650.65 L 475.67 651.62 L 478.03 653.09 L 500.27 665.53 L 501.16 666.16 L 501.89 666.97 L 502.43 667.91 L 502.76 668.95 L 502.87 670.03 L 502.74 671.11 L 502.38 672.14 L 501.81 673.07 Z" fill="#cccccc" fill-rule="nonzero" group-id="7,30" id="路径_1436" node-id="53" stroke="none" target-height="45.142456" target-width="47.521576" target-x="455.34604" target-y="650.1936"/></g><path d="M 448.81 603.36 L 452.52 605.75 L 456.52 607.90 L 459.31 609.07 L 462.04 609.83 L 464.75 610.23 L 467.44 610.14 L 470.02 609.42 L 472.56 608.06 L 474.15 606.63 L 475.48 604.98 L 476.53 603.15 L 477.27 601.15 L 477.69 599.05 L 477.77 596.94 L 477.51 594.84 L 476.91 592.79 L 475.49 589.63 L 473.74 586.89 L 471.63 584.52 L 469.23 582.43 L 466.60 580.58 L 463.75 578.96 L 459.28 576.87 L 454.70 575.09 L 448.68 573.00 L 442.51 571.22 L 436.26 569.91 L 430.01 569.23 L 425.83 569.19 L 421.69 569.57 L 417.56 570.37 L 414.53 571.33 L 411.61 572.62 L 408.80 574.23 L 406.17 576.13 L 403.80 578.25 L 401.67 580.61 L 399.82 583.19 L 398.35 585.90 L 397.25 588.75 L 396.56 591.71 L 396.36 594.74 L 396.64 597.87 L 397.63 601.55 L 399.13 605.13 L 402.77 612.09 L 404.49 615.58 L 405.82 619.06 L 406.42 621.43 L 406.66 623.86 L 406.55 626.36 L 405.99 628.83 L 405.09 631.06 L 403.82 633.10 L 402.27 634.95 L 400.46 636.64 L 398.39 638.16 L 395.00 640.09 L 391.31 641.65 L 387.47 642.85 L 383.66 643.70 L 373.36 645.40 L 368.25 646.49 L 363.42 648.03 L 360.39 649.41 L 357.59 651.18 L 355.01 653.35 L 352.93 655.84 L 351.32 658.52 L 350.16 661.44 L 349.43 664.51 L 349.09 667.66 L 349.16 670.94 L 349.60 674.19 L 350.39 677.38 L 351.53 680.53 L 352.99 683.55 L 354.74 686.33 L 356.78 688.91 L 359.85 691.97 L 363.18 694.68 L 366.79 697.04 L 370.59 699.10 L 374.55 700.92 L 378.68 702.49 L 385.00 704.47 L 391.37 706.11 L 399.89 707.92 L 408.57 709.22 L 414.39 709.72 L 420.16 709.83 L 425.88 709.55 L 431.55 708.79 L 437.08 707.47 L 442.52 705.58 L 446.44 703.70 L 450.15 701.41 L 453.66 698.71 L 456.88 695.67 L 459.72 692.37 L 462.20 688.79 L 464.27 684.98 L 465.81 681.05 L 466.86 676.98 L 467.34 672.83 L 467.18 668.67 L 466.38 664.44 L 465.17 661.00 L 463.65 657.71 L 461.79 654.56 L 458.66 650.01 L 455.33 645.61 L 452.02 641.19 L 448.95 636.61 L 447.16 633.41 L 445.73 630.08 L 444.64 626.61 L 444.14 623.59 L 444.06 620.48 L 444.42 617.41 L 445.22 614.47 L 446.48 611.74 L 448.21 609.33 L 449.08 608.02 L 449.50 606.51 L 449.43 604.95 L 448.88 603.48 Z" fill="#2e2e41" fill-rule="nonzero" group-id="7,31" id="路径_1442" node-id="54" stroke="none" target-height="140.6394" target-width="128.67569" target-x="349.0916" target-y="569.1897"/></g><g node-id="78"><g node-id="102"><path d="M 730.60 1002.99 L 716.23 1002.99 L 709.40 947.56 L 730.60 947.56 Z" fill="#f3dadd" fill-rule="nonzero" group-id="8,32" id="路径_1445" node-id="56" stroke="none" target-height="55.42804" target-width="21.200012" target-x="709.40106" target-y="947.56213"/></g><g node-id="103"><path d="M 705.97 998.88 L 733.68 998.88 L 733.68 1016.33 L 688.52 1016.33 L 688.67 1014.05 L 689.11 1011.83 L 689.85 1009.65 L 690.86 1007.60 L 692.12 1005.72 L 693.63 1003.99 L 695.35 1002.48 L 697.24 1001.23 L 699.29 1000.21 L 701.46 999.48 L 703.68 999.03 L 705.97 998.88 Z" fill="#2e2e41" fill-rule="nonzero" group-id="8,33" id="路径_1448" node-id="57" stroke="none" target-height="17.448975" target-width="45.161987" target-x="688.521" target-y="998.88403"/></g><g node-id="104"><path d="M 784.52 1002.99 L 770.15 1002.99 L 763.32 947.56 L 784.52 947.56 Z" fill="#f3dadd" fill-rule="nonzero" group-id="8,34" id="路径_1451" node-id="58" stroke="none" target-height="55.42804" target-width="21.208008" target-x="763.31506" target-y="947.56213"/></g><g node-id="105"><path d="M 759.89 998.88 L 787.60 998.88 L 787.60 1016.33 L 742.44 1016.33 L 742.59 1014.05 L 743.03 1011.83 L 743.76 1009.66 L 744.78 1007.60 L 746.03 1005.72 L 747.55 1004.00 L 749.27 1002.49 L 751.15 1001.23 L 753.21 1000.21 L 755.38 999.48 L 757.60 999.03 L 759.89 998.88 Z" fill="#2e2e41" fill-rule="nonzero" group-id="8,35" id="路径_1454" node-id="59" stroke="none" target-height="17.448975" target-width="45.161987" target-x="742.438" target-y="998.88403"/></g><g node-id="106"><path d="M 782.76 837.91 L 780.63 836.18 L 778.92 834.04 L 777.72 831.57 L 777.08 828.90 L 777.04 826.15 L 777.59 823.47 L 778.71 820.96 L 780.35 818.76 L 770.88 684.48 L 798.14 687.13 L 798.89 818.62 L 800.31 820.44 L 801.38 822.46 L 802.06 824.64 L 802.34 826.93 L 802.20 829.23 L 801.65 831.45 L 800.71 833.53 L 799.40 835.43 L 797.76 837.06 L 795.88 838.35 L 793.80 839.28 L 791.55 839.83 L 789.25 839.96 L 786.98 839.68 L 784.81 838.99 L 782.76 837.91 Z" fill="#f3dadd" fill-rule="nonzero" group-id="8,36" id="路径_1457" node-id="60" stroke="none" target-height="155.47559" target-width="31.452026" target-x="770.885" target-y="684.4844"/></g><g node-id="107"><path d="M 729.93 975.07 L 714.11 974.31 L 712.74 974.06 L 711.57 973.53 L 710.55 972.70 L 709.77 971.65 L 709.28 970.46 L 709.08 969.08 L 707.98 809.02 L 708.09 807.90 L 708.44 806.82 L 709.02 805.85 L 709.79 805.01 L 710.72 804.37 L 711.76 803.93 L 712.88 803.73 L 714.01 803.77 L 777.30 812.96 L 778.52 813.28 L 779.58 813.86 L 780.52 814.70 L 781.23 815.75 L 781.66 816.88 L 781.81 818.14 L 789.95 966.45 L 789.77 967.84 L 789.27 969.08 L 788.42 970.20 L 787.31 971.06 L 786.07 971.57 L 784.68 971.76 L 767.62 971.76 L 766.34 971.60 L 765.21 971.18 L 764.19 970.50 L 763.36 969.60 L 762.77 968.55 L 762.41 967.31 L 751.89 900.42 L 751.41 899.03 L 750.47 897.91 L 749.20 897.18 L 747.76 896.95 L 746.33 897.24 L 745.09 898.01 L 744.19 899.17 L 743.76 900.56 L 735.41 970.43 L 735.08 971.71 L 734.51 972.80 L 733.67 973.74 L 732.64 974.46 L 731.49 974.90 L 730.17 975.07 L 729.93 975.07 Z" fill="#2e2e41" fill-rule="nonzero" group-id="8,37" id="路径_1460" node-id="61" stroke="none" target-height="171.34564" target-width="81.97595" target-x="707.97705" target-y="803.72845"/></g><g node-id="108"><path d="M 741.06 818.14 L 734.14 814.62 L 728.23 812.14 L 722.54 810.21 L 718.00 809.01 L 713.82 808.20 L 710.96 807.83 L 709.94 807.62 L 708.97 807.22 L 708.11 806.62 L 707.38 805.87 L 706.81 804.98 L 706.43 803.99 L 706.25 802.95 L 706.29 801.89 L 721.45 689.30 L 722.42 684.43 L 723.99 679.75 L 726.13 675.30 L 728.85 671.14 L 732.06 667.35 L 735.71 664.03 L 739.76 661.19 L 744.15 658.88 L 748.66 657.14 L 753.32 656.00 L 758.10 655.46 L 762.93 655.53 L 767.71 656.22 L 772.34 657.49 L 776.77 659.35 L 780.95 661.76 L 782.48 662.82 L 785.46 665.24 L 788.16 667.91 L 790.58 670.83 L 792.72 673.97 L 794.53 677.30 L 796.02 680.84 L 797.16 684.51 L 797.92 688.22 L 798.32 692.00 L 798.35 695.79 L 798.01 699.57 L 797.29 703.34 L 795.13 713.14 L 793.14 724.04 L 791.42 735.21 L 789.90 746.73 L 788.59 758.24 L 787.49 769.32 L 785.81 789.76 L 784.76 805.96 L 784.25 815.86 L 783.96 817.37 L 783.25 818.73 L 782.18 819.82 L 780.83 820.56 L 776.46 821.93 L 772.05 822.91 L 767.56 823.52 L 762.99 823.73 L 759.16 823.59 L 755.39 823.13 L 751.66 822.35 L 748.02 821.25 L 744.49 819.85 L 741.06 818.14 Z" fill="#2968ff" fill-rule="nonzero" group-id="8,38" id="路径_1463" node-id="62" stroke="none" target-height="168.27002" target-width="92.098145" target-x="706.2534" target-y="655.4634"/></g><g node-id="109"><path d="M 777.06 729.60 L 776.19 728.82 L 775.52 727.86 L 775.07 726.77 L 774.88 725.62 L 772.88 689.43 L 772.98 686.75 L 773.56 684.17 L 774.59 681.74 L 776.07 679.51 L 777.93 677.59 L 780.09 676.06 L 782.48 674.95 L 785.07 674.28 L 787.74 674.10 L 790.37 674.40 L 792.89 675.18 L 795.27 676.42 L 797.37 678.07 L 799.12 680.05 L 800.48 682.32 L 801.41 684.82 L 810.19 717.18 L 810.37 718.57 L 810.20 719.88 L 809.67 721.18 L 808.82 722.29 L 807.76 723.10 L 806.47 723.65 L 781.52 730.41 L 780.36 730.59 L 779.19 730.51 L 778.07 730.18 L 777.06 729.60 Z" fill="#2968ff" fill-rule="nonzero" group-id="8,39" id="路径_1466" node-id="63" stroke="none" target-height="56.496094" target-width="37.486206" target-x="772.88" target-y="674.0979"/></g><g node-id="110"><path d="M 753.75 643.59 L 757.70 643.32 L 761.42 642.56 L 764.95 641.33 L 768.29 639.65 L 771.33 637.60 L 774.10 635.16 L 776.54 632.39 L 778.59 629.35 L 780.27 626.01 L 781.50 622.48 L 782.26 618.76 L 782.53 614.80 L 782.26 610.85 L 781.50 607.13 L 780.27 603.60 L 778.59 600.26 L 776.54 597.21 L 774.10 594.45 L 771.33 592.01 L 768.29 589.96 L 764.95 588.28 L 761.42 587.05 L 757.70 586.29 L 753.75 586.01 L 749.79 586.29 L 746.07 587.05 L 742.54 588.28 L 739.20 589.96 L 736.16 592.01 L 733.39 594.45 L 730.95 597.21 L 728.90 600.26 L 727.22 603.60 L 725.99 607.13 L 725.23 610.85 L 724.96 614.80 L 725.23 618.76 L 725.99 622.48 L 727.22 626.01 L 728.90 629.35 L 730.95 632.39 L 733.39 635.16 L 736.16 637.60 L 739.20 639.65 L 742.54 641.33 L 746.07 642.56 L 749.79 643.32 L 753.75 643.59 Z" fill="#f3dadd" fill-rule="nonzero" group-id="8,40" id="路径_1469" node-id="64" stroke="none" target-height="57.57605" target-width="57.57605" target-x="724.958" target-y="586.0148"/></g><g node-id="111"><path d="M 649.42 671.36 L 649.71 673.29 L 700.06 702.33 L 712.29 695.29 L 725.34 712.37 L 699.16 731.03 L 641.71 685.71 L 639.30 686.33 L 636.87 686.46 L 634.40 686.09 L 632.06 685.23 L 629.99 683.96 L 628.17 682.25 L 626.73 680.21 L 625.75 677.99 L 625.22 675.54 L 625.20 673.04 L 625.66 670.66 L 626.61 668.35 L 628.01 666.28 L 629.74 664.58 L 631.84 663.22 L 634.17 662.32 L 636.56 661.90 L 639.05 661.98 L 641.49 662.55 L 643.69 663.57 L 645.70 665.05 L 647.37 666.91 L 648.61 669.00 L 649.42 671.36 Z" fill="#f3dadd" fill-rule="nonzero" group-id="8,41" id="路径_1472" node-id="65" stroke="none" target-height="69.12207" target-width="100.14288" target-x="625.1971" target-y="661.905"/></g><g node-id="112"><path d="M 701.85 699.86 L 701.86 698.69 L 702.12 697.55 L 702.63 696.49 L 703.37 695.58 L 729.00 669.95 L 731.05 668.24 L 733.36 666.95 L 735.86 666.10 L 738.51 665.71 L 741.18 665.82 L 743.76 666.40 L 746.19 667.44 L 748.42 668.93 L 750.33 670.80 L 751.86 672.95 L 752.96 675.35 L 753.62 677.95 L 753.80 680.62 L 753.49 683.24 L 752.71 685.77 L 751.46 688.14 L 733.21 716.26 L 732.30 717.32 L 731.20 718.07 L 729.89 718.54 L 728.49 718.65 L 727.18 718.41 L 725.92 717.81 L 704.23 703.73 L 703.32 702.99 L 702.60 702.07 L 702.10 701.01 L 701.85 699.86 Z" fill="#2968ff" fill-rule="nonzero" group-id="8,42" id="路径_1475" node-id="66" stroke="none" target-height="52.93634" target-width="51.946045" target-x="701.853" target-y="665.7118"/></g><path d="M 774.12 637.58 L 772.64 638.85 L 771.09 639.74 L 769.44 640.28 L 767.71 640.52 L 766.02 640.44 L 764.34 640.07 L 762.76 639.41 L 761.36 638.50 L 760.12 637.32 L 759.14 635.93 L 758.45 634.31 L 758.07 632.41 L 758.08 630.59 L 758.38 628.88 L 758.84 627.20 L 759.77 623.85 L 760.02 622.13 L 759.96 620.33 L 759.63 619.01 L 758.98 617.81 L 758.02 616.83 L 756.98 616.19 L 755.82 615.84 L 753.92 615.70 L 751.83 615.91 L 747.59 616.70 L 745.51 616.96 L 743.67 616.90 L 742.53 616.62 L 741.52 616.06 L 740.62 615.19 L 739.99 614.06 L 739.64 612.85 L 739.56 611.52 L 739.82 607.36 L 739.74 605.31 L 739.15 603.44 L 737.98 601.98 L 736.47 601.05 L 734.69 600.50 L 732.66 600.17 L 728.45 599.69 L 726.40 599.25 L 724.55 598.49 L 723.01 597.34 L 721.88 595.93 L 721.11 594.24 L 720.69 592.39 L 720.58 590.46 L 720.80 588.42 L 721.31 586.42 L 722.07 584.56 L 723.09 582.84 L 725.43 580.12 L 728.15 577.86 L 731.28 576.05 L 734.65 574.70 L 738.14 573.79 L 741.75 573.34 L 745.35 573.32 L 748.92 573.62 L 752.48 574.25 L 757.72 575.65 L 762.84 577.46 L 768.52 579.93 L 773.91 582.97 L 777.23 585.37 L 780.18 588.13 L 782.77 591.27 L 784.49 594.11 L 785.84 597.09 L 786.83 600.23 L 787.48 603.47 L 787.82 606.76 L 787.84 610.12 L 787.31 615.12 L 786.18 619.99 L 785.02 622.91 L 783.25 626.10 L 781.15 629.20 L 778.81 632.23 L 774.12 637.58 Z" fill="#2e2e41" fill-rule="nonzero" group-id="8,43" id="路径_1478" node-id="67" stroke="none" target-height="67.19885" target-width="67.253235" target-x="720.5828" target-y="573.317"/></g></svg>